<?xml version="1.0" encoding="UTF-8"?>
<svg width="54px" height="40px" viewBox="0 0 54 40" version="1.1" xmlns="http://www.w3.org/2000/svg" xmlns:xlink="http://www.w3.org/1999/xlink">
    <title>Icon</title>
    <g id="Page-1" stroke="none" stroke-width="1" fill="none" fill-rule="evenodd">
        <path d="M25.8605664,0.109360919 L26.7233115,2.19596726 L27.5816993,4.2825736 L27.5810022,30.0112609 C27.5809673,30.1216892 27.5809307,30.2307654 27.5808923,30.3385063 L27.5801677,31.8566052 C27.5801088,31.9514188 27.5800476,32.0449822 27.5799841,32.1373122 L27.5791032,33.1871588 C27.5790194,33.2698938 27.578933,33.3514633 27.5788437,33.4318843 L27.5782742,33.9007648 C27.5781734,33.9766599 27.5780697,34.0514404 27.577963,34.1251234 L27.5772851,34.5541867 C27.5771658,34.6235475 27.5770433,34.6918446 27.5769175,34.7590951 L27.576122,35.1501743 C27.5684532,38.6224272 27.5502397,39.0313167 27.5069826,39.2006949 L27.5021636,39.2183582 C27.4997037,39.2268506 27.4971678,39.2349358 27.4945534,39.2430723 C27.328976,39.781128 26.9368192,40.0873386 26.5533769,39.9779777 C26.3616558,39.9254844 26.087146,39.6061505 25.9825708,39.3218122 C25.8518519,38.9674828 25.8257081,38.6481489 25.8997821,38.2894451 C26.0305011,37.6639006 26.2832244,37.3708134 26.7494553,37.2964479 C27.1808279,37.2308314 27.4509804,36.9377441 27.4509804,36.5352959 C27.4509804,36.11535 27.1154684,35.4066912 26.379085,34.2693377 L25.9172113,33.5563045 L25.8779956,33.1057375 C25.8645153,32.9636367 25.8556687,31.1560801 25.8508588,28.08006 L25.8500286,27.5068945 C25.8496356,27.2134113 25.8492757,26.9096438 25.8489484,26.5958902 L25.8480638,25.6249696 C25.8479763,25.5138271 25.8478923,25.4016082 25.847812,25.288324 L25.847017,23.8784818 C25.8469649,23.7568512 25.8469161,23.6341995 25.8468709,23.5105377 L25.8469684,17.7530907 C25.8470172,17.6033101 25.8470692,17.452674 25.8471245,17.3011935 L25.8474946,16.3822657 L25.8474946,16.3822657 L25.8605664,0.109360919 Z M45.2592593,32.0602471 C48.1350763,32.3314622 50.6318083,33.4863135 52.1873638,35.2579604 C53.2592593,36.4784283 53.8823529,37.9701112 53.9738562,39.5142874 L54,39.9823521 L52.2570806,39.9823521 L52.2309368,39.470543 C52.043573,35.8922537 49.5381264,33.0357465 45.9477124,32.3052156 C42.8278867,31.6709222 39.6165577,32.6814171 37.7821351,34.8773844 C36.7145969,36.1590944 36.0784314,37.7688871 36.0043573,39.4049265 L35.9782135,39.9823521 L34.2222222,39.9823521 L34.2396514,39.6673927 C34.3050109,38.2063308 34.8235294,36.7890133 35.7211329,35.6297875 C36.0784314,35.1660972 36.7930283,34.4618129 37.2592593,34.111858 C38.5751634,33.1232352 40.2962963,32.4364487 42.1786492,32.1477358 C42.9411765,32.0296261 44.4749455,31.9902561 45.2592593,32.0602471 Z M1.72984749,1.33226763e-15 L1.75599129,0.581800091 C1.81699346,1.95974767 2.24836601,3.26332983 3.03703704,4.46192551 C3.49891068,5.15746096 4.31808279,5.97985507 5.01089325,6.44354537 C6.53594771,7.4584147 8.25708061,7.93085387 10.1742919,7.86086288 C11.8736383,7.79962077 13.3812636,7.3271816 14.6840959,6.4479198 C16.6405229,5.13121434 17.869281,2.94399595 17.9825708,0.581800091 L18.0087146,1.33226763e-15 L19.751634,1.33226763e-15 L19.7254902,0.516183539 C19.6775599,1.43481526 19.4684096,2.21346501 19.0239651,3.12772229 C18.6623094,3.86700211 18.2701525,4.40943227 17.6514161,5.03497673 C16.8976035,5.79175429 16.2352941,6.2685679 15.2156863,6.77600256 C13.4553377,7.65963879 11.1808279,8.09708247 9.05446623,7.96147493 C5.18082789,7.71213203 1.95642702,5.82237535 0.649237473,3.03585912 C0.265795207,2.21783944 1.95399252e-14,1.12860469 1.95399252e-14,0.367452689 L1.95399252e-14,1.33226763e-15 L1.72984749,1.33226763e-15 Z" id="Icon" fill="#212121" fill-rule="nonzero"></path>
    </g>
</svg>