<?xml version="1.0" encoding="UTF-8"?>
<svg width="54px" height="40px" viewBox="0 0 54 40" version="1.1" xmlns="http://www.w3.org/2000/svg" xmlns:xlink="http://www.w3.org/1999/xlink">
    <title>Shape</title>
    <g id="Page-1" stroke="none" stroke-width="1" fill="none" fill-rule="evenodd">
        <path d="M25.8605664,39.8906391 L26.7233115,37.8040328 L27.5816993,35.7174264 L27.5690375,2.91526606 L27.5690375,2.91526606 L27.5432283,1.17179738 L27.5432283,1.17179738 L27.5240303,0.894792537 L27.5240303,0.894792537 L27.5021636,0.781641818 L27.4945534,0.756927718 C27.328976,0.218872018 26.9368192,-0.0873385819 26.5533769,0.0220223181 C26.3616558,0.0745156181 26.087146,0.393849518 25.9825708,0.678187818 C25.8518519,1.03251722 25.8257081,1.35185112 25.8997821,1.71055492 C26.0196079,2.28397071 26.2419511,2.57803002 26.6372927,2.68033822 L26.7494553,2.70355212 C27.1808279,2.76916862 27.4509804,3.06225592 27.4509804,3.46470412 C27.4509804,3.74466805 27.301864,4.15294883 26.9842653,4.73102254 L26.7733333,5.09857373 C26.6961801,5.22810371 26.6121327,5.36475722 26.5210361,5.50886607 L25.9172113,6.44369552 L25.8766176,6.91488731 L25.8766176,6.91488731 L25.8589456,8.78113682 L25.8589456,8.78113682 L25.847812,14.711676 L25.847812,14.711676 L25.8474946,23.6177343 L25.8605664,39.8906391 Z M45.2592593,7.93975292 C48.1350763,7.66853782 50.6318083,6.51368652 52.1873638,4.74203962 C53.2592593,3.52157172 53.8823529,2.02988882 53.9738562,0.485712618 L54,0.0176479181 L52.2570806,0.0176479181 L52.2309368,0.529457018 C52.043573,4.10774632 49.5381264,6.96425352 45.9477124,7.69478442 C42.8278867,8.32907782 39.6165577,7.31858292 37.7821351,5.12261562 C36.7145969,3.84090562 36.0784314,2.23111292 36.0043573,0.595073518 L35.9782135,0.0176479181 L34.2222222,0.0176479181 L34.2396514,0.332607318 C34.3050109,1.79366922 34.8235294,3.21098672 35.7211329,4.37021252 C36.0784314,4.83390282 36.7930283,5.53818712 37.2592593,5.88814202 C38.5751634,6.87676482 40.2962963,7.56355132 42.1786492,7.85226422 C42.9411765,7.97037392 44.4749455,8.00974392 45.2592593,7.93975292 Z M1.72984749,40 L1.75599129,39.4181999 C1.81699346,38.0402523 2.24836601,36.7366702 3.03703704,35.5380745 C3.49891068,34.8425391 4.31808279,34.0201449 5.01089325,33.5564546 C6.53594771,32.5415853 8.25708061,32.0691461 10.1742919,32.1391371 C11.8736383,32.2003792 13.3812636,32.6728184 14.6840959,33.5520802 C16.6405229,34.8687857 17.869281,37.0560041 17.9825708,39.4181999 L18.0087146,40 L19.751634,40 L19.7254902,39.4838165 C19.6775599,38.5651848 19.4684096,37.786535 19.0239651,36.8722777 C18.6623094,36.1329979 18.2701525,35.5905677 17.6514161,34.9650233 C16.8976035,34.2082457 16.2352941,33.7314321 15.2156863,33.2239975 C13.4553377,32.3403612 11.1808279,31.9029175 9.05446623,32.0385251 C5.18082789,32.287868 1.95642702,34.1776247 0.649237473,36.9641409 C0.265795207,37.7821606 1.0658141e-13,38.8713953 1.0658141e-13,39.6325473 L1.0658141e-13,40 L1.72984749,40 Z" id="Shape" fill="#212121" fill-rule="nonzero"></path>
    </g>
</svg>