<?xml version="1.0" encoding="UTF-8"?>
<svg width="175px" height="50px" viewBox="0 0 175 50" version="1.1" xmlns="http://www.w3.org/2000/svg" xmlns:xlink="http://www.w3.org/1999/xlink">
    <title>Wordmark</title>
    <g id="Page-1" stroke="none" stroke-width="1" fill="none" fill-rule="evenodd">
        <g id="Wordmark" transform="translate(87.500000, 25.000000) scale(-1, 1) rotate(-180.000000) translate(-87.500000, -25.000000) " fill="#212121" fill-rule="nonzero">
            <path d="M8.50934054,49.9573013 C6.36508574,49.7779082 4.64438744,49.35268 3.34724565,48.688261 C1.67949192,47.8378046 0.83237891,46.6019853 0.83237891,45.0406006 C0.838996981,43.3263995 1.71920034,41.9709847 3.380336,41.1338168 C4.84292955,40.3963117 6.11359906,40.0773905 10.6006508,39.2933761 C14.5913472,38.6023803 16.0274685,38.2369499 17.2253392,37.6323286 C18.707787,36.8881793 19.3298856,35.9114833 19.3166494,34.3766754 C19.3100314,33.0810583 18.6018978,32.1043624 17.112832,31.3535689 C15.7428914,30.6625731 13.9626305,30.3502962 11.4609999,30.3502962 C9.01231388,30.3502962 7.33794208,30.6957941 5.49150045,31.5861155 C3.53916969,32.5295905 1.67949192,34.3301661 0.931649966,36.0244345 C0.633836799,36.6822094 0.541183814,36.6157675 0.46176697,35.692225 C0.316169422,34.0444659 1.39491489,32.5362347 3.40019021,31.5794713 C5.82240397,30.4233823 10.1903304,29.8984912 13.7971788,30.3303636 C17.5297704,30.7755243 19.93213,32.2571787 20.5277563,34.4763382 C20.6932081,35.0876037 20.6733539,36.2038277 20.494666,36.8881793 C20.1637625,38.1439312 19.3365037,39.1073388 18.0062715,39.7717578 C16.6561852,40.4561094 14.9090146,40.8946259 10.8256652,41.5856217 C8.25123579,42.0174941 7.04012891,42.2633291 6.05403643,42.5490293 C3.33400951,43.3396879 2.06334,44.5289979 2.16922912,46.2033339 C2.2420279,47.2996252 2.90383493,48.1035722 4.30686585,48.794568 C5.51135466,49.3859009 6.85482294,49.6915337 8.86009826,49.8310617 C11.8382299,50.0303874 14.1413184,49.4656312 16.173066,48.0304861 C17.5099162,47.0870111 18.6614605,45.6120009 19.1379615,44.2432978 C19.3828301,43.5456578 19.4887193,43.6453206 19.5416638,44.6087282 C19.6806433,47.0338576 17.4569717,48.9540286 13.6515812,49.6981779 C12.3742936,49.9506571 9.89913531,50.0702525 8.50934054,49.9573013 Z" id="Path"></path>
            <path d="M118.565339,49.714202 C118.187335,49.342 118.034807,48.8435152 118.08786,48.1722223 C118.154177,47.294889 118.558708,46.736586 119.182083,46.650182 C119.553455,46.6036567 119.81209,46.4308486 119.964618,46.1251113 C120.223252,45.6266265 119.858511,44.6562427 118.790815,43.014566 C118.452601,42.4961418 118.147545,41.9444852 118.114387,41.798263 C118.021544,41.4393539 117.968491,0.357557781 118.061334,0.45045045 C118.094492,0.490487068 118.598498,1.68685065 119.188714,3.10919402 L120.25641,5.70131512 L120.25641,27.0431121 C120.25641,41.2466065 120.236515,48.5045455 120.190094,48.7438182 C120.037566,49.5347475 119.639667,50 119.109135,50 C118.89029,50 118.804079,49.9534747 118.565339,49.714202 Z" id="Path"></path>
            <path d="M128.379798,49.4213677 C128.698415,45.424149 131.360188,42.3181571 135.721249,40.8615999 C137.334244,40.3228732 138.827758,40.0900901 140.679715,40.0900901 C146.939197,40.0900901 151.917577,43.4621198 152.846875,48.3372634 C152.913253,48.6831126 152.979631,49.1952355 152.992907,49.4679243 L153.012821,49.9667453 L151.937491,49.9866981 L150.868798,50 L150.822333,49.4213677 C150.550182,45.7367435 148.704863,42.9100913 145.525338,41.3072133 C144.098202,40.5889111 142.432104,40.223109 140.63325,40.223109 C138.801206,40.22976 137.214763,40.595562 135.701335,41.3670718 C133.311713,42.5908459 131.672167,44.6060826 130.915453,47.2332064 C130.736231,47.8517444 130.543734,49.1087732 130.543734,49.6741036 L130.543734,50 L129.441853,50 L128.333333,50 L128.379798,49.4213677 Z" id="Path"></path>
            <path d="M26.474359,48.7664945 C26.474359,47.9997209 26.5011557,47.5329891 26.5413507,47.5329891 C26.5748465,47.5329891 27.0236909,47.7063466 27.5261286,47.9263773 C30.2191947,49.0665364 33.0060491,49.6666201 36.1680571,49.7799693 L37.3270134,49.8199749 L37.3404117,40.2253028 L37.3605092,30.6306306 L38.3653846,30.6306306 L39.37026,30.6306306 L39.3903575,40.2253028 L39.4037559,49.8199749 L40.5627122,49.7799693 C43.7247201,49.6666201 46.5115746,49.0665364 49.2046407,47.9263773 C49.7070784,47.7063466 50.1559227,47.5329891 50.1894186,47.5329891 C50.2296136,47.5329891 50.2564103,47.9997209 50.2564103,48.7664945 L50.2564103,50 L38.3653846,50 L26.474359,50 L26.474359,48.7664945 Z" id="Path"></path>
            <path d="M58.3597196,43.7989321 C58.3795093,37.0463593 58.3795093,37.1606957 58.7687069,35.7819334 C59.5668919,32.9638776 61.6382148,31.2084777 64.962886,30.529185 C66.4603074,30.2265298 68.2347847,30.1121934 69.7651889,30.2198042 C74.778582,30.5829904 77.4172099,32.7822845 77.9647252,37.0665364 C78.1098497,38.1897233 78.1164463,50 77.9713218,50 C77.8855664,50 77.8723732,49.1189372 77.8459869,43.6307904 C77.8196007,38.2704313 77.7998109,37.1674214 77.7140555,36.7100758 C77.4633859,35.3649418 77.093978,34.403171 76.4739004,33.4884798 C75.4580286,31.9886554 73.7033411,30.9730792 71.3945416,30.549362 C70.6821121,30.4148486 70.345687,30.3946716 68.7954931,30.3946716 C67.3310546,30.3946716 66.895681,30.4148486 66.3547623,30.5224593 C62.9113528,31.181575 61.0115407,33.2060017 60.4838151,36.7840582 C60.4046563,37.3422888 60.3848666,38.4991041 60.3848666,43.7316754 L60.3848666,50 L59.3558017,50 L58.3333333,50 L58.3597196,43.7989321 Z" id="Path"></path>
            <path d="M87.0512821,40.3119884 L87.0512821,30.6306306 L92.3225794,30.657246 C97.9109473,30.6838615 98.2015953,30.6971692 99.9322719,31.0365157 C104.437315,31.9148245 107.535359,34.2237119 108.612077,37.4907542 C108.968782,38.5819863 109.074472,39.373795 109.028232,40.6446811 C108.95557,42.5543372 108.506387,43.9183773 107.475908,45.3689175 C105.877344,47.6046125 102.818935,49.2015375 99.040511,49.7604613 C97.6863557,49.9600769 96.5435807,50 91.8271567,50 L87.0512821,50 L87.0512821,40.3119884 Z M98.261046,49.680615 C100.830638,49.268076 102.772695,48.403075 104.225935,47.0257272 C105.586696,45.7348795 106.405795,44.1512622 106.749288,42.1151829 C106.861584,41.4298359 106.874795,41.1304124 106.848373,39.9859495 C106.802133,38.229332 106.617175,37.3576772 106.016062,36.0535217 C105.467795,34.8824434 104.463738,33.6780958 103.380414,32.8995949 C102.330118,32.1477094 100.79761,31.482324 99.3707928,31.1695928 C97.8647079,30.843554 97.481581,30.8169385 93.1482839,30.7903231 L89.0329728,30.7570539 L89.0329728,40.3186422 L89.0329728,49.8802306 L93.2143403,49.8469614 C97.0588203,49.8203459 97.4551584,49.8070382 98.261046,49.680615 Z" id="Shape"></path>
            <path d="M5.97982715,10.2340181 C2.7100678,4.95326494 0.0227756998,0.588897163 0.00291886162,0.542748258 C-0.0235569226,0.470228552 0.122059891,0.45045045 0.770716604,0.45045045 L1.57160908,0.45045045 L1.57160908,0.799863581 C1.57160908,1.68987816 2.39897733,3.62153943 4.00738123,6.46958607 L4.44423167,7.24093204 L10.6329462,7.24093204 L16.8282797,7.24093204 L18.6948225,3.85887665 L20.5613653,0.483413953 L21.7196809,0.463635852 C22.3617186,0.457043151 22.8846154,0.463635852 22.8846154,0.483413953 C22.8846154,0.509784756 11.9832112,19.7538777 11.9302597,19.8198123 C11.9236407,19.8263974 9.24296756,15.5147713 5.97982715,10.2340181 Z M13.7637077,12.67991 C15.2728274,9.96371738 16.5436651,7.66945758 16.5899977,7.59034517 L16.669425,7.43871306 L10.6064704,7.43871306 L4.54351586,7.43871306 L4.72884635,7.75516269 C5.33778938,8.80340208 7.17123744,11.8096735 8.88554447,14.5720151 C10.3615694,16.95198 10.8910851,17.7562895 10.9440367,17.7035479 C10.9837504,17.6573989 12.254588,15.4026954 13.7637077,12.67991 Z" id="Shape"></path>
            <path d="M161.933607,19.7535998 C158.520099,19.7271117 155.723571,19.7072457 155.710158,19.7006237 C155.703452,19.6940017 155.703452,15.3565874 155.710158,10.0722261 L155.730277,0.45045045 L165.353822,0.45045045 L174.977366,0.45045045 L174.997485,1.82782783 C175.004191,2.58273658 174.997485,3.1985832 174.977366,3.1985832 C174.957247,3.1985832 174.722527,3.09263109 174.454275,2.96019096 C171.315725,1.3973974 167.446188,0.761684762 160.243619,0.635866636 L157.775699,0.596134596 L157.775699,5.54277354 L157.775699,10.4960345 L159.874772,10.4563025 C165.702549,10.3371063 169.632443,10.1252021 172.39544,9.78085778 C172.817937,9.73450373 173.220315,9.68814969 173.287378,9.68814969 C173.387972,9.68814969 173.401385,9.77423577 173.401385,10.5490105 C173.401385,11.2443212 173.381266,11.4098714 173.307497,11.4098714 C173.253846,11.4098714 172.70393,11.3502734 172.080243,11.2774313 C169.183121,10.9463309 165.286759,10.7344267 160.243619,10.6417186 L157.775699,10.5953646 L157.775699,15.0718411 L157.775699,19.5549396 L159.371799,19.5549396 C166.004333,19.5549396 171.423026,18.8198968 174.105547,17.5683376 C174.40733,17.4226534 174.682289,17.3034573 174.702408,17.3034573 C174.722527,17.3034573 174.742646,17.8729499 174.742646,18.5616386 L174.742646,19.8198198 L171.443145,19.8065758 C169.625736,19.7999538 165.347115,19.7734658 161.933607,19.7535998 Z" id="Path"></path>
            <path d="M30.0641026,10.1351351 L30.0641026,0.45045045 L30.870462,0.45045045 L31.6768215,0.45045045 L31.6368368,0.610197827 C31.0837141,2.80672425 30.6638741,5.92845423 30.4639502,9.23655614 C30.3173394,11.7658896 30.190721,19.6201356 30.297347,19.6201356 C30.3173394,19.6201356 34.775641,15.3069564 40.2069053,10.035293 C45.6315055,4.76362961 50.1164636,0.45045045 50.1631125,0.45045045 C50.243082,0.45045045 50.2564103,2.00133123 50.2564103,10.1351351 C50.2564103,18.6882759 50.243082,19.8198198 50.1564483,19.8198198 C50.0698147,19.8198198 50.0564864,18.834711 50.0431582,11.5329247 L50.0231658,3.23937339 L41.4331048,11.5329247 L32.8430439,19.8198198 L31.4569053,19.8198198 L30.0641026,19.8198198 L30.0641026,10.1351351 Z" id="Path"></path>
            <path d="M57.8846154,18.5888568 C57.8846154,17.9101637 57.8977981,17.3578938 57.9175721,17.3578938 C57.9307547,17.3578938 58.2207736,17.484317 58.5569318,17.6307018 C61.1802839,18.8017801 63.8036361,19.4139347 67.1124873,19.6202042 C67.712299,19.6534735 68.279154,19.6867427 68.378024,19.6867427 L68.5625815,19.6867427 L68.5757642,10.0918851 L68.5955382,0.490373575 L69.5710561,0.470412013 L70.5399826,0.45045045 L70.5399826,10.0785774 L70.5399826,19.7000504 L71.4166305,19.6601273 C73.4533536,19.5536657 75.2923367,19.3074731 76.8413009,18.9215495 C78.212299,18.582203 79.2141822,18.2228948 81.1388527,17.3778554 C81.1981747,17.3512399 81.2179487,17.6173941 81.2179487,18.582203 L81.2179487,19.8198198 L69.5512821,19.8198198 L57.8846154,19.8198198 L57.8846154,18.5888568 Z" id="Path"></path>
            <path d="M127.897905,10.1504452 L127.917839,0.474411295 L128.642115,0.454433249 C129.047443,0.4477739 129.406259,0.4477739 129.452772,0.467751946 C129.512574,0.494389342 129.505929,0.62757632 129.406259,1.05377465 C128.515865,4.9561531 128.103891,10.3435663 128.163694,17.2826079 L128.183628,19.6400174 L138.037763,10.0372363 C143.459862,4.75637263 147.931765,0.4477739 147.971634,0.461092597 C148.031436,0.481070644 148.058015,2.88509559 148.071304,10.1504452 C148.084594,19.7798637 148.084594,19.8198198 147.951699,19.8198198 C147.818805,19.8198198 147.818805,19.766545 147.805515,11.5555678 L147.785581,3.28465653 L139.247103,11.5555678 L130.708626,19.8198198 L129.299943,19.8198198 L127.884615,19.8198198 L127.897905,10.1504452 Z" id="Path"></path>
            <path d="M95.9943407,9.81214437 C90.7234457,9.09986524 86.8882547,6.1176124 85.951059,2.00370112 C85.8646509,1.61760589 85.771596,1.00517897 85.7516557,0.652367808 L85.7051282,-5.12102873e-14 L86.8018466,-5.12102873e-14 L87.898565,-5.12102873e-14 L87.9384457,0.718935951 C88.1444958,4.63979961 90.6303908,7.89498184 94.4124075,9.21303108 C96.2602119,9.85208526 98.6397584,9.96525111 100.647085,9.50593091 C104.08347,8.71377 106.742181,6.31731683 107.779078,3.06213461 C107.991775,2.38313954 108.191179,1.3446765 108.191179,0.898669939 C108.191179,0.745563209 108.211119,0.479290634 108.231059,0.306213461 L108.277587,-5.12102873e-14 L109.327778,-5.12102873e-14 L110.384615,-5.12102873e-14 L110.384615,0.452663377 C110.384615,1.81731032 109.819639,3.55473887 108.955558,4.85947449 C107.167575,7.54882749 103.737837,9.41939233 99.8029446,9.84542845 C98.9255699,9.94528066 96.8052477,9.92531022 95.9943407,9.81214437 Z" id="Path"></path>
        </g>
    </g>
</svg>